<svg xmlns="http://www.w3.org/2000/svg" viewBox="0 0 512 512">
  <rect width="512" height="512" fill="#29ABE2"/>
  <path fill="#FFFFFF" d="
    M 418,52
    C 410,38 390,35 375,46
      355,60 352,82 365,98
      372,107 382,112 393,110
    C 385,122 370,128 355,124
    C 338,118 320,106 308,88
    C 294,68 290,45 298,25
    C 278,38 272,62 282,85
    C 268,75 262,55 268,35
    C 248,50 245,76 258,98
    C 245,88 242,65 250,45
    C 228,62 226,92 242,112
    C 230,104 226,82 234,62
    C 210,80 210,112 228,132
    C 218,126 214,104 220,84
    C 196,104 198,138 218,156
    C 207,150 202,128 208,108
    C 184,128 187,164 210,182
    C 198,176 192,154 198,132
    C 175,155 178,192 202,208
    C 190,203 184,180 190,158
    C 165,182 168,222 194,238
    C 183,235 176,214 180,192
    C 154,216 157,260 185,274
    C 172,272 162,250 165,226
    C 140,250 143,296 170,310
    C 156,308 145,284 148,260
    C 122,282 122,330 150,345
    C 136,345 124,322 126,296
    C 100,318 100,368 128,383
    C 114,385 102,364 104,336
    C 96,358 100,392 120,406
    C 95,402 80,372 85,340
    C 77,365 80,398 100,412
    C 80,410 65,385 70,355
    C 60,380 62,415 82,430
    C 68,430 55,408 58,380
    C 46,404 46,438 65,454
    C 82,468 105,465 118,450
    C 108,462 95,464 83,456
    C 96,470 115,472 130,462
    C 118,474 103,476 90,466
    C 104,480 124,480 138,468
    C 148,460 152,448 145,438
    C 138,428 125,426 115,432
    C 125,418 142,416 155,426
    C 155,410 142,396 128,396
    C 142,388 160,390 170,404
    C 172,388 162,370 148,366
    C 162,356 180,358 188,372
    C 192,355 184,335 170,328
    C 186,318 202,320 210,335
    C 215,316 208,294 194,286
    C 210,276 228,278 236,294
    C 240,274 232,250 216,242
    C 232,232 250,236 258,252
    C 262,230 252,204 236,197
    C 252,187 270,192 278,209
    C 283,187 272,160 255,154
    C 270,143 290,148 298,166
    C 303,143 293,115 276,109
    C 290,97 310,102 318,120
    C 322,97 312,70 295,64
    C 308,52 328,57 336,76
    C 340,53 330,26 312,20
    C 326,8 346,13 354,33
    C 355,10 345,-18 326,-24
    C 355,-30 380,-10 383,18
    C 388,-5 380,-32 362,-42
    C 388,-48 410,-28 413,0
    C 420,-22 415,-50 398,-60
    C 422,-65 442,-45 442,-18
    C 445,-40 438,-66 420,-75
    C 432,-70 440,-58 440,-44
    C 440,-30 432,-18 420,-14
    C 426,-4 428,8 424,20
    C 422,32 415,42 418,52
    Z
  "/>
</svg>
